<svg xml:space="preserve" width="256" height="256" xmlns="http://www.w3.org/2000/svg"><path d="M128 90.267c-20.84 0-37.733 16.894-37.733 37.733 0 20.84 16.894 37.733 37.733 37.733 20.84 0 37.733-16.894 37.733-37.733 0-20.84-16.894-37.733-37.733-37.733zm9.703 37.194c-6.55 0-11.859-5.31-11.859-11.859 0-6.55 5.31-11.859 11.859-11.859 6.55 0 11.859 5.31 11.859 11.86 0 6.549-5.31 11.858-11.86 11.858z"/><path d="M128 188.857c-49.822 0-88.856-55.03-90.494-57.372a6.084 6.084 0 0 1 0-6.97c1.638-2.342 40.672-57.372 90.494-57.372s88.856 55.03 90.494 57.372a6.084 6.084 0 0 1 0 6.97c-1.638 2.342-40.672 57.372-90.494 57.372zm-74.73-64.755a6.062 6.062 0 0 0 0 7.796C65.304 146.293 94.668 176.69 128 176.69s62.696-30.397 74.73-44.792a6.063 6.063 0 0 0 0-7.796C190.696 109.707 161.332 79.31 128 79.31s-62.696 30.397-74.73 44.792zM188.347 35.467c17.776 0 32.186 14.41 32.186 32.186v5.906a9.387 9.387 0 1 0 18.775 0v-5.906c0-28.145-22.816-50.96-50.96-50.96h-5.907a9.387 9.387 0 1 0 0 18.775zM220.533 188.347c0 17.776-14.41 32.186-32.186 32.186h-5.906a9.387 9.387 0 0 0 0 18.775h5.906c28.145 0 50.96-22.816 50.96-50.96v-5.907a9.387 9.387 0 1 0-18.775 0zM67.653 220.533c-17.776 0-32.186-14.41-32.186-32.186v-5.906a9.387 9.387 0 1 0-18.775 0v5.906c0 28.145 22.816 50.96 50.96 50.96h5.907a9.387 9.387 0 1 0 0-18.775zM35.467 67.653c0-17.776 14.41-32.186 32.186-32.186h5.906a9.387 9.387 0 1 0 0-18.775h-5.906c-28.145 0-50.96 22.816-50.96 50.96v5.907a9.387 9.387 0 1 0 18.775 0z"/></svg>